<svg width="65" height="19" viewBox="0 0 65 19" fill="none" xmlns="http://www.w3.org/2000/svg">
<path d="M7.77169 0.75003H10.8215L17.5711 18.5H14.0213L12.3714 14.075H6.17178L4.54687 18.5H0.99707L7.77169 0.75003ZM11.7465 11.65L9.2966 4.67503L6.74675 11.65H11.7465Z" fill="#2A7AE4"/>
<path d="M19.1679 0.250031H22.5177V14.3C22.5177 14.7834 22.6344 15.1584 22.8677 15.425C23.101 15.6917 23.4343 15.825 23.8677 15.825C24.0676 15.825 24.2843 15.7917 24.5176 15.725C24.7676 15.6584 25.0009 15.575 25.2176 15.475L25.6676 18.025C25.2176 18.2417 24.6926 18.4084 24.0926 18.525C23.4927 18.6417 22.951 18.7 22.4677 18.7C21.4178 18.7 20.6012 18.425 20.0179 17.875C19.4512 17.3084 19.1679 16.5084 19.1679 15.475V0.250031Z" fill="#2A7AE4"/>
<path d="M31.1268 18.75C29.7769 18.75 28.7519 18.3167 28.052 17.45C27.352 16.5834 27.002 15.3 27.002 13.6V5.40003H30.3519V12.875C30.3519 14.8917 31.0768 15.9 32.5267 15.9C33.1767 15.9 33.8017 15.7084 34.4016 15.325C35.0183 14.925 35.5182 14.325 35.9015 13.525V5.40003H39.2514V14.65C39.2514 15 39.3097 15.25 39.4263 15.4C39.5597 15.55 39.768 15.6334 40.0513 15.65V18.5C39.718 18.5667 39.4347 18.6084 39.2014 18.625C38.9847 18.6417 38.7847 18.65 38.6014 18.65C38.0014 18.65 37.5098 18.5167 37.1265 18.25C36.7598 17.9667 36.5432 17.5834 36.4765 17.1L36.4015 16.05C35.8182 16.95 35.0683 17.625 34.1516 18.075C33.235 18.525 32.2268 18.75 31.1268 18.75Z" fill="#2A7AE4"/>
<path d="M50.3798 8.30003C49.3632 8.3167 48.4549 8.5167 47.655 8.90003C46.855 9.2667 46.2801 9.82503 45.9301 10.575V18.5H42.5803V5.40003H45.6551V8.20003C45.8884 7.75003 46.1634 7.35003 46.48 7.00003C46.7967 6.63337 47.1383 6.3167 47.505 6.05003C47.8716 5.78337 48.2383 5.58337 48.6049 5.45003C48.9882 5.30003 49.3549 5.22503 49.7049 5.22503C49.8882 5.22503 50.0215 5.22503 50.1048 5.22503C50.2048 5.22503 50.2965 5.23337 50.3798 5.25003V8.30003Z" fill="#2A7AE4"/>
<path d="M55.6516 18.75C55.0183 18.75 54.4267 18.65 53.8767 18.45C53.3267 18.2334 52.8518 17.9417 52.4518 17.575C52.0518 17.1917 51.7352 16.75 51.5018 16.25C51.2852 15.75 51.1769 15.2 51.1769 14.6C51.1769 13.9834 51.3102 13.4167 51.5768 12.9C51.8601 12.3667 52.2435 11.9167 52.7268 11.55C53.2267 11.1834 53.8184 10.9 54.5017 10.7C55.185 10.4834 55.9349 10.375 56.7515 10.375C57.3348 10.375 57.9015 10.425 58.4514 10.525C59.0181 10.625 59.518 10.7667 59.9514 10.95V10.2C59.9514 9.33337 59.7014 8.6667 59.2014 8.20003C58.7181 7.73336 57.9931 7.50003 57.0265 7.50003C56.3266 7.50003 55.6433 7.62503 54.9766 7.87503C54.31 8.12503 53.6267 8.4917 52.9268 8.97503L51.9018 6.85003C53.585 5.73336 55.4016 5.17503 57.3515 5.17503C59.2347 5.17503 60.693 5.6417 61.7263 6.57503C62.7762 7.4917 63.3012 8.82503 63.3012 10.575V14.65C63.3012 15 63.3595 15.25 63.4762 15.4C63.6095 15.55 63.8178 15.6334 64.1011 15.65V18.5C63.5345 18.6167 63.0429 18.675 62.6262 18.675C61.9929 18.675 61.5013 18.5334 61.1513 18.25C60.818 17.9667 60.6096 17.5917 60.5263 17.125L60.4513 16.4C59.868 17.1667 59.1597 17.75 58.3265 18.15C57.4932 18.55 56.6015 18.75 55.6516 18.75ZM56.6015 16.3C57.1682 16.3 57.7015 16.2 58.2015 16C58.7181 15.8 59.1181 15.5334 59.4014 15.2C59.768 14.9167 59.9514 14.6 59.9514 14.25V12.75C59.5514 12.6 59.1181 12.4834 58.6514 12.4C58.1848 12.3 57.7348 12.25 57.3015 12.25C56.4349 12.25 55.7266 12.45 55.1766 12.85C54.6267 13.2334 54.3517 13.725 54.3517 14.325C54.3517 14.8917 54.5683 15.3667 55.0016 15.75C55.4349 16.1167 55.9683 16.3 56.6015 16.3Z" fill="#2A7AE4"/>
</svg>
