<svg width="62" height="19" viewBox="0 0 62 19" fill="none" xmlns="http://www.w3.org/2000/svg">
<path d="M14.0805 16.5C12.664 17.9167 11.014 18.625 9.13082 18.625C7.96422 18.625 6.86428 18.3917 5.83101 17.925C4.8144 17.4584 3.92279 16.8167 3.15616 16C2.4062 15.1834 1.80624 14.225 1.35626 13.125C0.922954 12.0084 0.706299 10.8084 0.706299 9.52503C0.706299 8.30837 0.922954 7.1667 1.35626 6.10003C1.80624 5.0167 2.41454 4.07503 3.18116 3.27503C3.96445 2.45836 4.88106 1.8167 5.931 1.35003C6.98094 0.866697 8.12255 0.62503 9.35581 0.62503C11.0224 0.62503 12.4473 0.97503 13.6306 1.67503C14.8305 2.37503 15.7305 3.3167 16.3304 4.50003L13.7556 6.40003C13.3056 5.5167 12.6723 4.8417 11.8557 4.37503C11.0557 3.90836 10.1808 3.67503 9.23082 3.67503C8.48086 3.67503 7.78923 3.83336 7.15593 4.15003C6.5393 4.4667 6.006 4.90003 5.55603 5.45003C5.12272 6.00003 4.78107 6.63337 4.53108 7.35003C4.29776 8.0667 4.1811 8.82503 4.1811 9.62503C4.1811 10.4584 4.31443 11.2417 4.58108 11.975C4.84773 12.6917 5.21438 13.3167 5.68102 13.85C6.14766 14.3834 6.69763 14.8084 7.33092 15.125C7.98089 15.425 8.68085 15.575 9.43081 15.575C11.1474 15.575 12.6973 14.7667 14.0805 13.15V11.9H10.5057V9.37503H16.9304V18.5H14.0805V16.5Z" fill="#464646"/>
<path d="M25.6201 18.75C24.5702 18.75 23.6202 18.575 22.7703 18.225C21.9203 17.8584 21.1954 17.3667 20.5954 16.75C19.9954 16.1334 19.5288 15.4167 19.1955 14.6C18.8788 13.7834 18.7205 12.925 18.7205 12.025C18.7205 11.0917 18.8788 10.2167 19.1955 9.40003C19.5121 8.5667 19.9704 7.8417 20.5704 7.22503C21.1704 6.5917 21.8953 6.0917 22.7453 5.72503C23.6119 5.35836 24.5785 5.17503 25.6451 5.17503C26.7117 5.17503 27.6617 5.35836 28.495 5.72503C29.3449 6.0917 30.0616 6.58337 30.6449 7.20003C31.2448 7.8167 31.6948 8.53337 31.9948 9.35003C32.3114 10.1667 32.4697 11.0167 32.4697 11.9C32.4697 12.1167 32.4614 12.325 32.4447 12.525C32.4447 12.725 32.4281 12.8917 32.3948 13.025H22.2703C22.3203 13.5417 22.4453 14 22.6453 14.4C22.8453 14.8 23.1036 15.1417 23.4203 15.425C23.7369 15.7084 24.0952 15.925 24.4952 16.075C24.8952 16.225 25.3118 16.3 25.7451 16.3C26.4118 16.3 27.0367 16.1417 27.62 15.825C28.22 15.4917 28.6283 15.0584 28.845 14.525L31.7198 15.325C31.2365 16.325 30.4615 17.15 29.3949 17.8C28.345 18.4334 27.0867 18.75 25.6201 18.75ZM29.0199 10.85C28.9366 9.8667 28.57 9.08337 27.92 8.50003C27.2867 7.90003 26.5117 7.60003 25.5951 7.60003C25.1452 7.60003 24.7202 7.68337 24.3202 7.85003C23.9369 8.00003 23.5952 8.2167 23.2953 8.50003C22.9953 8.78337 22.7453 9.12503 22.5453 9.52503C22.362 9.92503 22.2537 10.3667 22.2203 10.85H29.0199Z" fill="#464646"/>
<path d="M40.5851 18.75C39.5352 18.75 38.5852 18.575 37.7353 18.225C36.8853 17.8584 36.1604 17.3667 35.5604 16.75C34.9604 16.1334 34.4938 15.4167 34.1605 14.6C33.8438 13.7834 33.6855 12.925 33.6855 12.025C33.6855 11.0917 33.8438 10.2167 34.1605 9.40003C34.4771 8.5667 34.9354 7.8417 35.5354 7.22503C36.1354 6.5917 36.8603 6.0917 37.7103 5.72503C38.5769 5.35836 39.5435 5.17503 40.6101 5.17503C41.6767 5.17503 42.6267 5.35836 43.46 5.72503C44.3099 6.0917 45.0265 6.58337 45.6098 7.20003C46.2098 7.8167 46.6598 8.53337 46.9598 9.35003C47.2764 10.1667 47.4347 11.0167 47.4347 11.9C47.4347 12.1167 47.4264 12.325 47.4097 12.525C47.4097 12.725 47.3931 12.8917 47.3597 13.025H37.2353C37.2853 13.5417 37.4103 14 37.6103 14.4C37.8103 14.8 38.0686 15.1417 38.3852 15.425C38.7019 15.7084 39.0602 15.925 39.4602 16.075C39.8601 16.225 40.2768 16.3 40.7101 16.3C41.3767 16.3 42.0017 16.1417 42.585 15.825C43.185 15.4917 43.5933 15.0584 43.8099 14.525L46.6848 15.325C46.2015 16.325 45.4265 17.15 44.3599 17.8C43.31 18.4334 42.0517 18.75 40.5851 18.75ZM43.9849 10.85C43.9016 9.8667 43.5349 9.08337 42.885 8.50003C42.2517 7.90003 41.4767 7.60003 40.5601 7.60003C40.1101 7.60003 39.6852 7.68337 39.2852 7.85003C38.9019 8.00003 38.5602 8.2167 38.2602 8.50003C37.9603 8.78337 37.7103 9.12503 37.5103 9.52503C37.327 9.92503 37.2186 10.3667 37.1853 10.85H43.9849Z" fill="#464646"/>
<path d="M58.4249 18.5L54.6251 12.825L52.8252 14.6V18.5H49.4754V0.250031H52.8252V11.325L58.075 5.42503H61.6497L56.775 10.975L61.9997 18.5H58.4249Z" fill="#464646"/>
</svg>
