<svg width="42" height="31" viewBox="0 0 42 31" fill="none" xmlns="http://www.w3.org/2000/svg">
<path d="M40.9557 24.0209L38.685 8.06252C38.1017 3.95835 34.5811 0.916687 30.4355 0.916687H11.5615C7.41593 0.916687 3.8953 3.95835 3.312 8.06252L1.04129 24.0209C0.582983 27.2292 3.06201 30.0834 6.29099 30.0834C7.70758 30.0834 9.04084 29.5209 10.0408 28.5209L14.7488 23.8334H27.2481L31.9354 28.5209C32.9353 29.5209 34.2894 30.0834 35.6852 30.0834C38.935 30.0834 41.414 27.2292 40.9557 24.0209ZM18.9153 13.4167H14.7488V17.5834H12.6656V13.4167H8.4992V11.3334H12.6656V7.16669H14.7488V11.3334H18.9153V13.4167ZM27.2481 11.3334C26.1024 11.3334 25.1649 10.3959 25.1649 9.25002C25.1649 8.10419 26.1024 7.16669 27.2481 7.16669C28.3939 7.16669 29.3314 8.10419 29.3314 9.25002C29.3314 10.3959 28.3939 11.3334 27.2481 11.3334ZM31.4146 17.5834C30.2688 17.5834 29.3314 16.6459 29.3314 15.5C29.3314 14.3542 30.2688 13.4167 31.4146 13.4167C32.5603 13.4167 33.4978 14.3542 33.4978 15.5C33.4978 16.6459 32.5603 17.5834 31.4146 17.5834Z" fill="#2A7AE4"/>
</svg>
